<svg width="176" height="138" viewBox="0 0 176 138" xmlns="http://www.w3.org/2000/svg">
<path d="M76 0.5C77.5 8.16667 81.3 24.2 94.5 27C107.433 29.7433 127.342 12.5521 135.039 3.07715C128.503 11.3865 118.296 29.8889 126.5 42C134.9 54.4 162.667 51.8333 175.5 49C165.667 52.8333 145.3 63.7 142.5 76.5C139.7 89.3 158.333 100.5 168 104.5C158.333 102.667 135.9 100.4 123.5 106C111.1 111.6 107.667 129.667 107.5 138C104 129.5 92.8 112.4 76 112C59.2 111.6 48 123.5 44.5 129.5C45.5 122.833 46 106.4 40 94C34 81.6 10.8333 79.1667 0 79.5C10.3333 76.6667 31.6 67.8 34 55C36.4 42.2 24 28.3333 17.5 23C27.1667 25.1667 47.6034 33.6207 58 29C71.5 23 75.5 8.5 76 0.5ZM9.13867 110.694L6.30762 106.672L26.4346 100.101L9.13867 110.694ZM24.0195 110.33L20.7207 108.165L27.8496 102.112L24.0195 110.33ZM22.7705 98.5371L11.5283 100.779L10.0039 96.2305L22.7705 98.5371ZM82.1982 51.0898C80.5584 51.0898 79.2566 51.456 78.293 52.1885C77.3294 52.921 76.5092 54.1477 75.833 55.8682L68.2256 75.3418H68.0225L60.3887 55.8682C59.7294 54.1479 58.9186 52.921 57.9551 52.1885C56.9914 51.4559 55.6972 51.0898 54.0742 51.0898C52.1471 51.0899 50.6594 51.627 49.6113 52.7002C48.5633 53.7564 48.0391 55.2469 48.0391 57.1719V84.7451C48.0391 86.1251 48.3944 87.1992 49.1045 87.9658C49.8314 88.7152 50.8459 89.0898 52.1475 89.0898C53.449 89.0898 54.455 88.7152 55.165 87.9658C55.8751 87.1992 56.2305 86.1251 56.2305 84.7451V65.5029H56.4326L64.5479 85.793C65.1903 87.4796 66.3912 88.3232 68.1494 88.3232C69.0453 88.3232 69.7722 88.1188 70.3301 87.71C70.9049 87.3011 71.3611 86.6618 71.6992 85.793L79.8398 65.5029H80.0176V84.7451C80.0176 86.1251 80.372 87.1992 81.082 87.9658C81.809 88.7154 82.8157 89.0898 84.1006 89.0898C85.4021 89.0898 86.4082 88.7153 87.1182 87.9658C87.8451 87.1992 88.208 86.1251 88.208 84.7451V57.1719C88.208 55.2297 87.6839 53.7301 86.6357 52.6738C85.5876 51.6178 84.1084 51.0899 82.1982 51.0898ZM120.449 51.0898C119.519 51.0898 118.725 51.3203 118.065 51.7803C117.406 52.2403 116.78 53.0068 116.188 54.0801L108.809 66.9854H108.632L101.252 54.0801C100.626 52.9557 99.9921 52.1798 99.3496 51.7539C98.7241 51.3111 97.9038 51.0898 96.8896 51.0898C95.9939 51.0899 95.1913 51.2861 94.4814 51.6777C93.7715 52.0525 93.2134 52.572 92.8076 53.2363C92.4019 53.9007 92.1983 54.6674 92.1982 55.5361C92.1982 56.6434 92.5198 57.7084 93.1621 58.7305L103.966 75.8525V84.209C103.966 85.7593 104.371 86.9607 105.183 87.8125C105.994 88.6642 107.144 89.0898 108.632 89.0898C110.102 89.0898 111.243 88.664 112.055 87.8125C112.866 86.9607 113.272 85.7593 113.272 84.209V75.8525L124.05 58.7051C124.709 57.6659 125.039 56.5843 125.039 55.46C125.039 54.6252 124.836 53.8837 124.431 53.2363C124.042 52.572 123.501 52.0525 122.808 51.6777C122.115 51.2859 121.328 51.0899 120.449 51.0898ZM165.5 43L145 41L162.5 36L165.5 43ZM170 26L139 39L165 20L170 26ZM147 25.5L136.5 36L141.5 22.5L147 25.5Z" fill="#EAC319"/>
</svg>